<svg xmlns="http://www.w3.org/2000/svg" viewBox="0 0 977 248.07"><g data-name="Layer 2"><g data-name="Layer 1"><path d="M146.09 221.49a24.36 24.36 0 0 1-13.74-4.41 31.61 31.61 0 0 1-10.62-12.22 37.7 37.7 0 0 1-4-17.44q0-12.82 9.76-23.36t28.78-20.74a67 67 0 0 1-1-8.92 43.53 43.53 0 0 1 4.25-19 49.2 49.2 0 0 1 11.07-15.17A52.85 52.85 0 0 1 185 90.6a36.07 36.07 0 0 1 14.52-3.35q8 0 12.91 3.85a12.08 12.08 0 0 1 4.91 10 26.09 26.09 0 0 1-4.16 14.51 47.14 47.14 0 0 1-10.63 11.47A181.72 181.72 0 0 1 186.67 138q-9.43 5.86-11.44 7.36A132.47 132.47 0 0 0 185 171.2a114.34 114.34 0 0 0 14.14-11 123 123 0 0 0 8.62-9q3.51-4.11 4.71-4.11c.6 0 1.11.73 1.51 2.2a18.34 18.34 0 0 1 .6 4.82 30.3 30.3 0 0 1-2.21 11.53 49.06 49.06 0 0 1-6.25 10.83A116.31 116.31 0 0 1 196 188.05l6.61 7.22a25.65 25.65 0 0 0 2.2-2.3 16.58 16.58 0 0 1 2-2.06 2.4 2.4 0 0 1 1.5-.55 1.79 1.79 0 0 1 1.55.8 3.11 3.11 0 0 1 .55 1.8q0 4.11-5.82 13.77t-9.59 9.66a5.94 5.94 0 0 1-3.91-1.65 34.33 34.33 0 0 1-4.62-5.31q-2.7-3.65-4.41-6.15a148.35 148.35 0 0 1-20.43 13.51q-8.95 4.71-15.54 4.7zm13.47-65a88.16 88.16 0 0 0-13.12 11 64.64 64.64 0 0 0-9.08 11.51q-3.35 5.57-3.34 9.28 0 7.42 6.68 7.42 4.89 0 13.27-3.26a72 72 0 0 0 16.77-9.48q-4.39-10.26-11.18-26.51zm13.47-30v4.11q14.44-8.13 22.42-17.15t8-14.34q0-4.52-4.51-4.52-4.11 0-10.44 4.87a45.57 45.57 0 0 0-10.89 12.23 27.93 27.93 0 0 0-4.61 14.78z" fill="#e1251b"/><path d="M0 7.31h26.87C57 7.31 83.55 17.44 83.55 56.4S57 105.49 26.87 105.49H0zM19.69 90h11C47.12 90 63 77.78 63 56.4S47.12 22.78 30.66 22.78h-11zm79.89-53.15a65 65 0 0 1 25.18-5.48c22.08 0 31.23 9.14 31.23 30.52v9.28c0 7.32.14 12.8.28 18.15s.42 10.55.84 16.17h-16.6a88.57 88.57 0 0 1-.84-10.83h-.28c-4.36 8-13.78 12.52-22.37 12.52-12.8 0-25.31-7.74-25.31-21.52 0-10.83 5.2-17.16 12.37-20.68s16.46-4.22 24.34-4.22h10.41c0-11.67-5.21-15.61-16.32-15.61A37.88 37.88 0 0 0 100.15 53zm22.09 56.55a16 16 0 0 0 13.22-6.47c3.09-4.08 3.94-9.29 3.94-14.91h-8.16c-8.44 0-21 1.4-21 12.51.04 6.19 5.25 8.87 12 8.87zM163 33.06h20.25l18 52.74h.28L219 33.06h18.85l-26.72 72.43h-21.24zm83.15-31.23H265v18h-18.85zm0 31.23H265v72.43h-18.85zm83.41 64.27h-.28c-5.63 7-13.37 9.85-22.23 9.85-22.22 0-30.38-18.28-30.38-38.12s8.16-37.69 30.38-37.69c9.43 0 16 3.23 21.66 10.12h.29V0h18.84v105.49h-18.28zm-17.3-4.78c12.52 0 16.6-13.22 16.6-23.49S324.07 46 312 46c-12.24 0-15.62 13.36-15.62 23.06-.02 9.99 3.5 23.49 15.88 23.49zM401 7.31h58v15.47h-38.3V47h35v15.45h-35V90h38.54v15.47H401zm73 78.49h19.7v19.69H474zm72.87-78.49h19.7V90h38.11v15.47h-57.81zm98.32 24.06c21.52 0 38 14.48 38 38.4 0 20.81-13.92 37.41-38 37.41s-37.83-16.6-37.83-37.41c0-23.92 16.45-38.4 37.83-38.4zm0 61.18c14.49 0 18.29-12.94 18.29-25 0-11.12-5.91-21.52-18.29-21.52s-18.14 10.68-18.14 21.52c0 11.92 3.79 25 18.14 25zm82.43-61.18c21.52 0 38 14.48 38 38.4 0 20.81-13.93 37.41-38 37.41s-37.84-16.6-37.84-37.41c0-23.92 16.46-38.4 37.84-38.4zm0 61.18c14.48 0 18.28-12.94 18.28-25C745.9 56.4 740 46 727.62 46s-18.15 10.68-18.15 21.52c0 11.95 3.8 25.03 18.15 25.03zm49.23-59.49h18v10.26h.28c4.22-7 11.4-11.95 22.51-11.95 22.22 0 30.38 17.72 30.38 37.69s-8.16 38.12-30.81 38.12c-8 0-14.62-2-21.23-10h-.29V135h-18.84zm19 36c0 10.27 4.07 23.49 16.59 23.49s15.9-13.5 15.9-23.49c0-9.7-3.38-23.06-15.62-23.06s-16.88 12.94-16.88 23.06zm121.51 32.36c-6.89 3.79-14.77 5.76-24.89 5.76-23.92 0-37.84-13.78-37.84-37.56 0-21 11.11-38.25 33.62-38.25 26.86 0 34.46 18.42 34.46 43.74h-50.08c.85 11.68 9 18.29 20.68 18.29 9.14 0 17-3.38 24.05-7.32zM904.7 62.17c-.56-9.14-4.78-17-15.33-17s-15.89 7.32-16.74 17zm29.68-29.11h16.74v16.45h.28c.85-6.75 8.58-18.14 19.83-18.14a20.69 20.69 0 0 1 5.77.56v19c-1.69-1-5.06-1.55-8.44-1.55-15.33 0-15.33 19.13-15.33 29.54v26.58h-18.85zM320.56 215.44c-7.18 1.69-14.91 3.1-22.37 3.1-31.79 0-53.87-15.9-53.87-49.09 0-33.62 20.54-52.47 53.87-52.47a65 65 0 0 1 22.23 4.08l-1.42 16.6c-7.45-4.22-14.2-5.21-21.24-5.21-20.25 0-32.91 15.47-32.91 35.59 0 20 12.38 35 33.33 35 7.74 0 16.88-1.69 21.52-4.08zM363 142.72c21.52 0 38 14.49 38 38.4 0 20.82-13.92 37.42-38 37.42s-37.84-16.6-37.84-37.42c.04-23.91 16.5-38.4 37.84-38.4zm0 61.19c14.48 0 18.28-12.94 18.28-25 0-11.11-5.91-21.52-18.28-21.52s-18.11 10.61-18.11 21.48c0 11.96 3.8 25.04 18.11 25.04zm49-59.5h17.59v10.12h.28a25.51 25.51 0 0 1 21.52-11.81c10.13 0 17.3 3.8 21.38 12.8 4.36-8.72 13.78-12.8 22.65-12.8 17.86 0 22.92 12.24 22.92 28.41v45.72h-18.87v-43.19c0-6.75 0-16.31-10.83-16.31-12.52 0-14.06 14.91-14.06 24.33v35.17h-18.85v-43.19c0-6.75 0-16.31-10.83-16.31-12.52 0-14.07 14.91-14.07 24.33v35.17H412zm121.79 0h18v10.27h.28c4.22-7 11.39-12 22.5-12 22.23 0 30.39 17.72 30.39 37.7s-8.16 38.12-30.81 38.12c-8 0-14.63-2-21.24-10h-.28v37.84h-18.84zm19 36c0 10.27 4.08 23.49 16.6 23.49s15.89-13.51 15.89-23.49c0-9.71-3.37-23.07-15.61-23.07s-16.89 12.95-16.89 23.08zm66.66-32.2a64.79 64.79 0 0 1 25.18-5.49c22.08 0 31.23 9.14 31.23 30.52v9.29c0 7.31.14 12.8.28 18.14.14 5.49.42 10.55.84 16.18h-16.6a88.71 88.71 0 0 1-.84-10.83h-.28c-4.36 8-13.79 12.52-22.37 12.52-12.8 0-25.32-7.74-25.32-21.52 0-10.84 5.21-17.17 12.38-20.68s16.46-4.22 24.34-4.22h10.4c0-11.68-5.2-15.61-16.31-15.61a37.92 37.92 0 0 0-22.38 7.87zm22.09 56.54a16 16 0 0 0 13.22-6.47c3.09-4.08 3.93-9.28 3.93-14.91h-8.15c-8.44 0-21 1.41-21 12.52.04 6.19 5.24 8.86 12 8.86zm49.37-60.34h17.86v9.84h.28C715 146 723 142.72 732.82 142.72c17.16 0 24.62 12.1 24.62 28.41v45.72h-18.85v-38.68c0-8.86-.14-20.82-12.24-20.82-13.64 0-16.6 14.77-16.6 24.05v35.45h-18.84zm112.52 52.89h.28l17.44-52.89h19.13l-27.14 71.87c-6 16-10.41 31.79-30.11 31.79a48.21 48.21 0 0 1-13.36-2l1.27-13.93c2.39.84 5.06 1.27 9.7 1.27 7.6 0 12.24-5.21 12.24-12.95l-27.71-76.09H786z" fill="#fff"/></g></g></svg>