<svg xmlns="http://www.w3.org/2000/svg" viewBox="0 0 160.25 169.87"><g data-name="Layer 2"><g data-name="Layer 1"><path d="M41.79 151.23h-29.9V0h29.9z"/><path d="M19.27 166.49c1.75.11 6.77 1.28 7.06 1.69.11.17-.12.47-.78.73a13.55 13.55 0 0 1-3.11.64 52.84 52.84 0 0 1-14.54-.38c-3.65-.8-6.25-2.07-7.27-4.1-1.44-2.87-.17-6.86 1.38-9.3s4.44-5 8.66-7.55a70.12 70.12 0 0 1 16.23-6.87 149.46 149.46 0 0 1 20-4.53 221.74 221.74 0 0 1 23.23-2.36q12.61-.66 26.11-.08 28.8.93 44.83 3.54t18.62 6.79a3.22 3.22 0 0 1 0 3.69 6.77 6.77 0 0 1-4 2.68 11.79 11.79 0 0 1-5 .29q-19.85-2.6-36.06-3.43t-31-.27a246.26 246.26 0 0 0-26.07 2.21 140.8 140.8 0 0 0-20.32 4.38A70.22 70.22 0 0 0 24.92 159a10.33 10.33 0 0 0-5.65 7.49z" fill="#e1251b"/></g></g></svg>